# xmcd
#
# Track frame offsets:
#	150
#	21075
#	38484
#	65915
#	87505
#	108233
#	125173
#	144026
#	160760
#	178872
#
# Disc length: 2708 seconds
#
# Revision: 0
# Processed by: cddbd v1.5.2PL0 Copyright (c) Steve Scherf et al.
# Submitted via: EZCDAudioConverter 3.1.7.1
#
DISCID=830a920a
DTITLE=Gunner and Smith - He Once Was A Good Man
DYEAR=2014
DGENRE=Country
TTITLE0=Ease My Mind
TTITLE1=The Burning Days
TTITLE2=He Once Was A Good Man
TTITLE3=Drifting
TTITLE4=Towns
TTITLE5=Jesus Help Me
TTITLE6=Open Door
TTITLE7=River Of Stone
TTITLE8=Nothing That's Mine
TTITLE9=The Traveler
EXTD=
EXTT0=
EXTT1=
EXTT2=
EXTT3=
EXTT4=
EXTT5=
EXTT6=
EXTT7=
EXTT8=
EXTT9=
PLAYORDER=
